# xmcd CD database file
#
# Track frame offsets:
#	150
#	10788
#	23635
#	38716
#	55728
#	75868
#	88445
#	102272
#	116109
#	134139
#	149912
#	169969
#	185812
#	198003
#	217088
#	240478
#	250351
#	273975
#	289094
#	301429
#
# Disc length: 4199 seconds
#
# Revision: 0
# Processed by: cddbd v1.5.2PL0 Copyright (c) Steve Scherf et al.
# Submitted via: CDex 1.70beta2
#
DISCID=2b106514
DTITLE=Chet Baker - Rebel at work disc 2
DYEAR=1900
DGENRE=Jazz
TTITLE0=My funny Valentine
TTITLE1=The thrill is gone
TTITLE2=I fall in love too easily
TTITLE3=Let's get lost
TTITLE4=I've never been in love before
TTITLE5=Time after time
TTITLE6=But not for me
TTITLE7=That old feeling
TTITLE8=Long ago and far away
TTITLE9=A foggy day
TTITLE10=Mythe
TTITLE11=You don't know what love is
TTITLE12=What a difference a day made
TTITLE13=Sad walk
TTITLE14=Piece caprice
TTITLE15=Rondette
TTITLE16=The girl from Greenland
TTITLE17=My buddy
TTITLE18=Just friends
TTITLE19=There will never be another you
EXTD=
EXTT0=
EXTT1=
EXTT2=
EXTT3=
EXTT4=
EXTT5=
EXTT6=
EXTT7=
EXTT8=
EXTT9=
EXTT10=
EXTT11=
EXTT12=
EXTT13=
EXTT14=
EXTT15=
EXTT16=
EXTT17=
EXTT18=
EXTT19=
PLAYORDER=
